<?xml version="1.0" encoding="utf-8"?>
<!DOCTYPE svg PUBLIC "-//W3C//DTD SVG 1.0//EN" "http://www.w3.org/TR/2001/REC-SVG-20010904/DTD/svg10.dtd">
<svg version="1.0" xmlns="http://www.w3.org/2000/svg" width="8955px" height="1037px" viewBox="0 0 8955 1037" preserveAspectRatio="xMidYMid meet">
 <g fill="#ffffff">
  <path d="M388.84 935.27 c-19.74 -5.60 -56.85 -25.04 -132.56 -69.81 -31.52 -18.56 -74.53 -43.30 -95.15 -55.09 -43.89 -25.04 -68.05 -45.95 -81.01 -70.40 -17.67 -33.29 -18.26 -38.29 -18.26 -220.05 0 -181.75 0.59 -186.76 18.26 -220.05 13.55 -25.63 38.59 -46.54 99.86 -83.66 29.75 -17.97 77.18 -46.84 105.46 -64.51 95.44 -58.91 125.78 -68.34 183.22 -56.26 25.04 5.30 44.78 15.32 134.03 68.64 40.36 24.15 86.02 50.96 101.33 59.80 55.97 31.52 77.77 49.49 92.20 75.71 16.50 30.64 16.79 34.46 16.79 216.81 0 181.75 -0.29 185.58 -16.79 217.98 -15.91 31.81 -21.21 35.35 -194.71 134.32 -116.06 65.98 -122.25 68.64 -164.08 70.11 -22.68 0.59 -37.12 -0.59 -48.60 -3.53z m64.22 -81.01 c10.90 -5.01 78.65 -43.01 215.63 -121.66 43.30 -24.74 49.78 -30.05 58.62 -48.90 l7.66 -16.50 0 -150.23 0 -150.23 -6.78 -14.73 c-3.53 -7.95 -8.84 -17.09 -11.78 -20.03 -2.65 -3.24 -27.40 -18.85 -55.09 -35.05 -27.40 -16.50 -84.25 -50.37 -126.37 -75.41 -41.83 -25.04 -82.19 -47.43 -89.55 -49.49 -21.21 -6.48 -25.92 -4.42 -97.80 40.06 -26.81 16.79 -72.46 44.78 -101.63 62.74 -77.18 47.13 -85.43 53.32 -94.85 69.22 l-8.25 13.84 -0.88 156.71 c-0.88 153.77 -0.59 157.30 5.30 171.15 8.84 20.33 22.09 31.52 69.22 58.62 22.68 13.26 69.81 40.36 104.57 60.68 105.75 60.98 105.75 61.27 131.97 49.19z"/>
  <path d="M382.94 578.83 l0 -163.49 -54.20 0 c-29.75 0 -56.26 -0.88 -58.91 -1.77 -4.12 -1.47 -4.71 -8.54 -4.71 -48.60 l0 -46.84 172.32 0 172.32 0 0 48.60 0 48.60 -60.39 0 -60.39 0 0 163.49 0 163.49 -53.02 0 -53.02 0 0 -163.49z"/>
  <path d="M3574.93 927.61 c-147.29 -20.33 -231.53 -114.59 -253.33 -282.49 -16.20 -125.19 -1.47 -245.38 39.47 -325.50 41.83 -81.01 108.11 -135.50 196.19 -161.13 20.91 -6.19 29.46 -6.78 85.13 -6.78 49.49 0 66.87 1.18 86.90 5.60 47.43 10.31 97.50 31.22 140.81 58.62 l18.85 11.78 -1.18 18.26 c-2.36 39.47 -53.91 119.30 -76.59 119.30 -5.30 0 -20.03 -6.48 -36.82 -16.20 -86.02 -48.90 -159.66 -50.96 -212.68 -5.30 -57.15 48.60 -81.01 184.70 -53.02 301.64 23.86 101.04 97.80 149.64 192.65 126.96 l20.62 -5.01 0 -64.51 0 -64.51 -37.12 -0.88 c-20.62 -0.29 -41.83 -2.06 -47.43 -3.83 -12.37 -4.12 -27.10 -19.15 -31.52 -32.40 -5.89 -18.26 -3.83 -74.53 4.42 -111.64 l1.47 -6.78 108.11 0.88 c96.62 0.88 109.29 1.47 119.89 6.19 17.09 7.66 32.99 24.45 40.65 43.30 6.48 15.91 6.48 18.26 7.36 183.22 l0.88 167.02 -32.70 10.31 c-33.88 10.90 -80.12 21.80 -125.19 29.75 -31.81 5.89 -126.67 8.25 -155.83 4.12z"/>
  <path d="M4639.51 927.90 c-48.31 -4.42 -91.02 -23.86 -121.36 -55.09 -22.98 -23.57 -27.40 -29.46 -40.95 -56.56 -23.57 -47.43 -33.88 -111.64 -31.22 -194.42 1.77 -52.14 6.48 -84.54 18.56 -122.25 15.02 -47.13 41.53 -88.37 72.76 -113.41 18.26 -14.73 56.26 -31.81 82.19 -37.12 29.16 -5.60 81.60 -5.60 110.76 0.29 83.95 17.09 142.57 86.31 157.01 186.46 4.71 33.29 1.77 109.29 -5.30 138.74 l-5.30 22.09 -129.02 0.88 -128.73 0.59 1.77 8.25 c8.25 34.46 24.15 57.15 47.72 68.93 11.78 5.60 18.26 6.78 41.83 6.48 30.64 0 47.13 -4.12 88.96 -20.91 39.47 -15.61 38.29 -16.50 59.21 35.94 9.72 24.45 18.26 50.37 19.15 57.74 l1.18 13.26 -19.15 12.67 c-39.18 25.63 -91.61 42.42 -146.70 47.43 -34.17 2.95 -37.71 2.95 -73.35 0z m88.37 -367.92 c0 -11.19 -10.31 -43.60 -17.67 -55.67 -7.66 -12.67 -22.39 -21.21 -36.53 -21.21 -21.80 0 -45.66 33.88 -50.96 72.46 l-1.77 12.96 53.61 0 53.32 0 0 -8.54z"/>
  <path d="M6854.40 927.90 c-52.43 -5.30 -91.91 -23.86 -128.43 -60.39 -20.33 -20.62 -26.22 -29.16 -38.88 -54.79 -27.10 -55.67 -37.71 -116.65 -34.76 -197.07 2.06 -52.14 9.13 -91.02 23.86 -130.20 12.96 -34.76 25.92 -55.38 50.37 -80.42 23.86 -24.45 50.37 -40.36 85.43 -51.26 21.50 -6.78 28.28 -7.36 79.53 -7.36 55.38 -0.29 56.26 0 81.89 9.13 35.35 12.37 54.79 25.04 80.12 51.26 32.11 33.58 50.67 70.40 63.92 126.37 8.54 36.82 10.90 133.44 4.12 179.39 -16.79 113.41 -79.24 191.18 -168.20 210.32 -26.51 5.60 -70.40 7.95 -98.98 5.01z m53.02 -147.29 c17.97 -10.31 29.46 -33.29 35.64 -72.76 4.71 -28.87 3.83 -115.47 -1.18 -144.93 -10.90 -62.45 -42.12 -89.55 -75.41 -65.69 -11.78 8.54 -25.92 40.06 -30.93 69.81 -6.19 36.53 -6.19 116.95 0.29 147.88 4.71 23.57 16.20 50.67 24.45 58.03 7.66 7.07 21.80 13.55 29.46 13.55 3.83 0 11.78 -2.65 17.67 -5.89z"/>
  <path d="M2209.29 925.84 c-16.50 -2.65 -43.60 -14.14 -59.80 -25.33 -19.15 -13.26 -38.88 -40.36 -48.60 -66.87 -19.15 -52.43 -14.14 -131.97 11.78 -180.28 31.22 -58.91 103.39 -90.43 207.97 -90.73 l30.05 0 0 -7.95 c0 -23.86 -15.32 -47.72 -34.76 -54.20 -22.68 -7.36 -65.40 -0.88 -120.48 18.56 -21.80 7.66 -37.12 11.19 -44.19 10.60 l-11.19 -0.88 -15.91 -47.13 c-8.84 -27.10 -16.20 -54.79 -17.09 -65.10 l-1.77 -18.26 17.38 -6.48 c28.28 -10.60 85.43 -26.22 123.43 -33.88 124.60 -25.04 218.28 0.59 253.33 69.22 3.53 7.36 9.72 22.68 13.55 33.88 6.48 20.03 6.78 25.04 8.54 164.96 1.18 86.02 3.24 147.88 5.01 153.47 4.71 13.55 12.67 28.28 19.15 35.64 5.01 5.30 5.89 9.43 4.71 20.62 -2.06 21.50 -18.85 58.62 -33.29 73.35 -10.90 11.49 -13.55 12.96 -25.63 12.96 -33.29 0 -70.99 -13.84 -91.61 -33.88 l-10.90 -10.60 -14.73 11.78 c-32.99 26.22 -74.53 38.88 -124.90 38.29 -17.97 -0.29 -35.94 -1.18 -40.06 -1.77z m108.40 -144.05 c8.54 -4.12 19.44 -12.37 24.15 -18.26 8.84 -10.60 8.84 -11.19 8.84 -45.66 l0 -34.76 -21.21 1.77 c-40.06 3.53 -63.04 20.33 -69.81 50.96 -4.71 21.80 4.71 40.65 24.74 49.49 12.37 5.60 15.91 5.01 33.29 -3.53z"/>
  <path d="M2755.72 923.19 c-11.19 -2.65 -31.81 -10.02 -45.66 -16.50 -20.33 -9.72 -29.75 -16.79 -50.37 -37.41 -48.60 -48.90 -68.64 -106.34 -72.46 -207.97 -4.42 -118.12 18.26 -199.13 70.99 -254.22 19.74 -20.33 27.98 -26.51 50.08 -37.41 35.64 -17.38 54.79 -22.09 100.45 -24.15 54.20 -2.36 84.84 3.24 124.01 22.39 25.04 12.67 32.99 18.26 51.84 38 33.88 35.35 53.32 74.82 65.98 133.15 7.95 36.53 7.95 160.84 0 197.36 -22.39 102.51 -76.88 165.26 -161.43 185.58 -30.34 7.36 -101.33 7.95 -133.44 1.18z m94.26 -152 c21.80 -24.15 29.75 -66.57 27.10 -145.22 -2.95 -93.38 -20.33 -136.98 -54.79 -136.98 -36.23 0 -54.50 41.53 -58.33 132.56 -4.42 106.34 18.56 168.20 60.98 164.08 11.19 -1.18 15.02 -3.53 25.04 -14.43z"/>
  <path d="M4060.09 923.48 c-26.51 -7.36 -48.90 -20.33 -66.28 -39.47 -32.99 -35.35 -45.66 -78.36 -42.71 -141.69 2.95 -58.03 16.20 -91.91 48.90 -123.72 38.29 -37.41 97.80 -55.97 180.28 -55.97 31.22 0 32.11 -0.29 32.11 -6.48 0 -22.09 -14.73 -47.43 -31.22 -54.20 -21.80 -9.13 -65.69 -3.24 -126.08 16.79 -19.15 6.19 -39.77 11.49 -45.95 11.49 l-10.90 0 -10.60 -35.94 c-16.50 -57.15 -20.03 -72.76 -19.15 -85.72 l0.88 -12.37 23.57 -8.25 c30.05 -10.60 105.46 -29.75 135.80 -34.76 36.53 -5.89 101.33 -5.01 129.32 1.18 68.64 15.91 108.99 58.33 120.77 126.96 3.53 20.62 4.42 52.43 4.42 152.29 0 78.06 1.18 131.67 3.24 140.81 1.77 7.95 7.66 22.09 13.26 31.22 12.96 21.80 13.26 35.64 1.18 63.63 -11.49 27.40 -24.15 45.07 -35.64 49.78 -22.39 9.43 -79.24 -7.36 -105.46 -30.93 l-12.08 -10.90 -12.08 10.90 c-15.91 14.14 -48.90 29.75 -74.82 35.35 -25.92 5.30 -80.42 5.30 -100.74 0z m118.42 -142.28 c11.49 -5.60 24.45 -17.67 29.75 -27.69 2.65 -5.30 4.12 -17.97 4.12 -39.47 l0 -31.52 -22.68 2.06 c-30.64 2.36 -51.26 12.37 -60.98 29.16 -13.55 23.57 -13.55 41.83 0.29 58.33 14.43 16.79 28.57 19.44 49.49 9.13z"/>
  <path d="M8119.59 923.48 c-93.97 -21.50 -148.17 -91.61 -163.19 -211.50 -4.71 -36.53 -2.36 -135.80 3.83 -168.79 11.49 -60.09 33.58 -106.05 68.34 -141.10 25.92 -25.92 45.66 -38 81.01 -49.19 19.74 -6.19 27.69 -6.78 75.12 -6.78 50.08 0 54.20 0.59 74.53 7.95 30.93 11.19 52.14 24.45 74.23 46.84 31.52 31.81 54.20 78.95 62.15 129.32 4.71 30.93 2.06 119.30 -4.42 146.70 l-5.30 21.21 -127.84 0 c-107.52 0 -127.84 0.59 -127.84 4.12 0 2.36 2.65 12.67 5.89 22.98 7.36 24.45 24.15 43.89 43.60 51.55 29.75 11.49 80.71 4.42 132.85 -18.56 20.03 -9.13 31.22 -9.13 36.82 -0.29 9.43 14.43 37.12 88.37 37.12 99.27 0 10.90 -0.88 11.78 -22.09 25.04 -26.22 16.50 -53.02 27.69 -87.19 36.82 -20.91 5.60 -33.88 6.78 -82.19 7.66 -41.53 0.59 -62.45 -0.29 -75.41 -3.24z m115.47 -371.75 c-2.65 -22.98 -17.67 -53.32 -31.22 -62.15 -12.08 -8.25 -30.05 -7.66 -42.12 1.18 -13.26 9.72 -31.52 50.96 -31.52 70.99 l0 6.78 53.32 0 53.61 0 -2.06 -16.79z"/>
  <path d="M8547.02 922.01 c-39.77 -7.95 -76.88 -22.09 -106.64 -40.95 -10.90 -6.48 -12.67 -9.13 -12.67 -17.38 0 -10.60 18.56 -65.98 33.29 -98.39 7.95 -18.56 9.43 -20.03 17.97 -20.03 5.30 0 23.86 7.66 43.60 17.38 33.88 17.09 74.82 29.75 96.33 29.75 19.74 0 44.48 -18.26 44.48 -32.99 0 -10.60 -21.21 -27.40 -47.72 -38 -13.55 -5.60 -42.42 -18.85 -64.22 -29.46 -60.68 -30.34 -88.08 -58.62 -102.81 -106.93 -7.66 -24.74 -8.54 -85.13 -1.77 -110.76 16.20 -61.27 65.69 -106.93 133.15 -122.84 31.52 -7.36 104.28 -7.36 139.33 0 30.93 6.48 71.88 20.03 96.33 31.81 17.97 8.54 18.56 9.13 18.56 20.33 0 12.67 -19.15 78.06 -30.64 103.98 -6.78 15.02 -8.54 16.79 -16.20 16.79 -4.71 0 -17.09 -3.83 -27.40 -8.54 -25.92 -11.49 -70.99 -25.92 -93.08 -29.75 -16.20 -2.95 -19.74 -2.65 -31.22 2.65 -16.20 7.07 -24.15 17.97 -19.74 26.51 5.30 9.72 17.97 16.79 68.05 38.29 76.29 32.99 108.99 55.67 133.15 93.08 18.56 28.57 24.45 51.84 24.15 98.68 0 34.76 -1.18 42.71 -7.95 63.33 -20.91 63.63 -66.57 101.04 -139.92 115.18 -31.81 6.19 -112.53 5.01 -146.40 -1.77z"/>
  <path d="M1915.60 919.07 c-17.67 -3.83 -28.28 -10.02 -39.77 -23.57 -20.91 -24.15 -20.91 -25.33 -22.98 -194.42 -1.18 -136.39 -2.06 -152.59 -6.48 -161.13 -5.89 -10.60 -18.85 -21.50 -25.63 -21.50 -8.54 0 -34.76 14.14 -47.13 25.04 l-12.08 10.90 0 179.39 0 179.39 -85.43 0 -85.43 0 0 -403.86 0 -403.86 58.33 1.18 c53.91 0.88 58.91 1.47 72.17 7.95 15.91 7.66 26.22 19.74 33.58 38.88 4.42 11.19 5.30 28.87 6.48 126.96 l1.77 114 19.15 -12.96 c10.60 -7.07 29.75 -16.50 43.01 -20.62 21.50 -7.07 27.10 -7.66 61.86 -6.78 35.35 0.88 39.47 1.47 57.15 10.02 35.64 16.79 61.27 52.14 73.94 101.63 5.89 23.27 6.48 34.17 8.54 188.23 2.06 169.38 2.36 172.91 15.02 197.95 3.24 6.19 5.60 17.09 5.60 24.45 0 12.67 -0.59 13.84 -13.84 22.39 -7.95 4.71 -22.68 11.49 -33.29 14.73 -21.50 6.78 -65.10 9.72 -84.54 5.60z"/>
  <path d="M5053.68 916.12 c-45.95 -14.73 -74.23 -50.96 -89.26 -114.88 -3.83 -15.32 -5.01 -50.67 -6.78 -179.69 -2.06 -171.74 -2.36 -172.91 -17.97 -203.84 -2.95 -6.19 -5.60 -15.61 -5.60 -21.21 0 -9.13 1.47 -11.19 13.55 -18.26 24.74 -14.43 50.67 -22.39 79.24 -23.86 58.33 -3.53 84.84 11.78 98.68 56.56 2.65 8.54 4.12 55.38 5.60 163.49 1.77 150.82 1.77 151.70 8.54 162.31 3.53 5.89 10.31 12.37 15.02 14.43 15.91 6.48 42.71 -3.53 58.62 -22.09 l9.43 -10.60 0 -179.39 0 -179.69 86.90 0 86.60 0 0.88 208.56 c0.88 228 0.29 220.05 18.56 243.91 5.01 6.48 7.36 13.26 7.36 21.50 0 23.86 -22.98 70.40 -40.06 81.60 -5.60 3.83 -12.67 4.42 -34.46 3.53 -22.98 -0.88 -30.05 -2.65 -46.54 -10.60 -17.97 -8.54 -40.95 -28.87 -48.90 -43.01 -2.65 -5.01 -5.01 -3.83 -24.74 12.67 -38.29 32.40 -73.35 44.48 -126.37 44.19 -21.80 0 -35.94 -1.77 -48.31 -5.60z"/>
  <path d="M7779.36 920.24 c-14.43 -2.65 -38.88 -19.74 -45.95 -32.11 -13.55 -23.57 -13.55 -25.92 -15.32 -181.16 l-1.77 -148.76 -7.36 -14.43 c-5.01 -10.31 -10.60 -16.50 -18.26 -20.03 -10.31 -5.60 -10.90 -5.60 -23.57 0.59 -14.43 7.07 -21.80 12.67 -31.22 24.74 l-6.48 8.54 0 177.63 0 177.92 -86.90 0 -86.90 0 0 -170.85 c0 -111.94 -1.18 -175.57 -3.24 -185.58 -3.53 -17.09 -13.26 -30.05 -26.22 -35.35 -7.95 -3.24 -10.60 -2.65 -24.74 4.12 -18.85 9.13 -29.75 20.91 -34.17 36.53 -1.77 6.78 -2.95 73.05 -2.95 181.16 l0 169.97 -85.43 0 -85.43 0 0 -278.67 0 -278.67 58.33 1.18 58.62 0.88 14.14 8.84 c12.67 7.66 23.57 22.09 28.57 37.41 0.59 1.77 9.13 -2.95 20.33 -11.49 39.18 -30.93 70.40 -40.65 121.95 -38.29 42.71 1.77 61.27 8.54 83.95 31.22 9.43 9.13 18.26 18.85 19.74 22.09 2.95 5.01 4.71 4.42 23.27 -9.72 39.47 -30.05 80.12 -44.19 125.78 -44.48 78.95 0 123.13 39.47 137.57 123.72 2.06 11.78 3.83 81.01 5.01 176.74 1.47 165.84 2.36 177.33 15.91 203.84 2.95 5.89 5.60 15.61 5.60 21.21 0 9.13 -1.47 11.19 -13.55 18.26 -26.51 15.61 -50.37 22.39 -82.19 23.27 -16.20 0.59 -32.99 0.29 -37.12 -0.29z"/>
  <path d="M5582.74 915.83 c-32.99 -6.48 -58.62 -25.33 -72.46 -53.32 -17.97 -36.53 -17.38 -28.87 -18.26 -352.90 -0.59 -162.90 0 -320.20 0.88 -349.66 l1.77 -53.91 52.14 0 c73.35 0 89.55 5.89 105.16 37.71 l8.25 16.79 1.47 291.63 c1.47 270.12 1.77 292.22 6.48 301.05 8.54 15.32 15.61 18.56 40.95 18.56 l22.39 0 5.30 21.50 c6.78 26.81 9.43 91.32 4.42 106.34 -4.12 12.67 -2.65 12.08 -59.21 16.20 -49.49 3.83 -81.01 3.83 -99.27 0z"/>
  <path d="M1203.62 908.46 c-0.88 -2.65 -1.77 -134.32 -1.77 -293.10 l0 -288.39 -82.48 0 -82.48 0 0 -81.01 0 -81.01 257.75 0 257.75 0 0 53.91 c0 60.39 -2.65 70.40 -20.91 85.72 -21.50 18.26 -31.22 20.62 -93.08 21.80 l-56.85 1.18 0 292.80 0 292.80 -88.08 0 c-77.47 0 -88.37 -0.59 -89.84 -4.71z"/>
  <path d="M6026.95 539.36 c0 -279.55 0.88 -374.70 3.53 -376.17 4.42 -2.65 161.13 -2.65 169.38 0 l6.78 2.06 0.59 139.04 0.88 139.04 93.67 0.88 93.38 0.59 0 -139.63 c0 -108.11 0.88 -140.51 3.53 -141.98 4.71 -2.95 157.30 -3.24 168.20 -0.29 l7.95 2.06 0 374.11 0 374.11 -88.96 -0.59 -89.26 -0.88 -0.88 -152.29 -0.59 -152.59 -94.26 0 -94.26 0 0 153.18 0 153.18 -89.84 0 -89.84 0 0 -373.81z"/>
 </g>
 <g fill="none">
  <path d="M0 518.45 l0 -518.45 4477.50 0 4477.50 0 0 518.45 0 518.45 -4477.50 0 -4477.50 0 0 -518.45z m482.21 401.21 c18.85 -7.95 132.56 -71.58 235.07 -131.38 52.43 -30.34 70.99 -52.14 82.19 -95.15 6.78 -26.22 7.07 -326.68 0.29 -352.90 -11.78 -45.07 -33.58 -67.46 -104.57 -107.52 -15.32 -8.84 -60.98 -35.64 -101.63 -59.80 -89.55 -53.61 -112.82 -65.40 -140.51 -69.81 -42.42 -7.36 -70.40 2.95 -158.77 57.44 -28.28 17.67 -75.71 46.54 -105.46 64.51 -61.27 37.12 -86.31 58.03 -99.86 83.66 -17.67 32.99 -18.26 39.18 -18.26 211.21 0 172.03 0.59 178.22 18.26 211.21 12.96 24.45 37.12 45.36 81.01 70.40 20.62 11.78 63.63 36.53 95.15 55.09 114 67.16 132.26 75.12 172.32 73.05 17.97 -0.88 28.57 -3.24 44.78 -10.02z m3239.71 -5.01 c44.19 -7.66 90.73 -18.85 125.19 -29.75 l32.70 -10.31 -0.88 -158.19 c-0.88 -155.83 -1.18 -158.48 -7.66 -174.39 -7.36 -18.85 -23.27 -35.64 -40.36 -43.30 -10.31 -4.71 -22.98 -5.30 -111.05 -6.19 l-99.27 -0.88 -1.47 6.78 c-8.25 37.12 -10.02 76.88 -4.42 93.97 4.42 13.26 19.15 28.28 31.52 32.40 5.30 1.77 26.81 3.53 47.13 3.83 l37.41 0.29 0 73.64 0 73.64 -20.62 5.01 c-27.69 6.48 -80.42 6.78 -101.92 0.59 -68.93 -20.62 -105.75 -77.18 -117.83 -182.05 -4.42 -37.12 -2.06 -112.23 4.71 -145.81 6.48 -32.99 20.33 -70.11 33.58 -91.02 47.43 -73.35 150.53 -82.48 253.92 -22.68 l27.69 16.20 18.26 -19.44 c19.44 -20.33 46.54 -69.52 49.78 -89.84 1.77 -10.31 1.47 -10.90 -17.09 -22.39 -43.30 -27.40 -93.38 -48.31 -140.81 -58.62 -19.15 -4.12 -37.41 -5.60 -78.06 -5.60 -46.54 0 -55.97 0.88 -76.29 6.78 -88.08 25.33 -154.36 80.12 -196.19 161.13 -48.02 94.26 -59.50 246.85 -27.40 371.16 33.29 128.73 113.41 201.49 241.25 219.16 27.69 3.83 105.75 1.47 138.15 -4.12z m995.65 2.95 c42.42 -3.83 97.80 -22.98 132.85 -45.95 15.91 -10.31 18.56 -13.26 17.09 -18.56 -2.06 -7.07 -24.74 -65.69 -31.81 -81.89 l-4.71 -10.90 -19.74 8.25 c-42.42 17.97 -61.27 22.39 -101.04 22.39 -32.70 0 -38.29 -0.88 -50.67 -6.78 -26.51 -12.96 -44.78 -43.01 -48.60 -79.24 l-1.77 -15.61 129.32 -0.59 129.32 -0.88 5.30 -22.09 c7.95 -32.99 9.72 -95.15 3.83 -129.02 -9.72 -55.67 -35.05 -106.05 -68.93 -136.09 -43.60 -39.18 -114 -55.67 -179.69 -42.71 -25.92 5.30 -63.92 22.39 -82.19 37.12 -31.22 25.04 -57.74 66.28 -72.76 113.41 -29.75 93.97 -24.45 224.76 12.67 298.99 13.55 27.10 17.97 32.99 40.95 56.56 30.34 31.22 73.05 50.67 121.36 55.09 24.45 2.06 33.29 1.77 69.22 -1.47z m2225.49 -3.24 c70.99 -14.43 128.73 -69.52 154.95 -148.17 14.73 -44.19 20.03 -86.02 17.97 -147.58 -2.95 -93.97 -23.86 -153.18 -71.29 -202.96 -25.33 -26.22 -44.78 -38.88 -80.12 -51.26 -25.04 -8.84 -27.69 -9.13 -73.05 -9.13 -41.83 0 -49.78 0.88 -70.70 7.36 -35.05 10.60 -61.57 26.81 -85.43 51.26 -24.45 25.04 -37.41 45.66 -50.37 80.42 -36.23 96.33 -31.81 221.81 10.90 309.60 25.63 52.43 69.22 90.43 123.13 106.34 37.71 11.49 80.42 12.96 124.01 4.12z m-4647.17 -1.18 c31.52 -7.95 58.33 -21.80 77.77 -40.06 l16.20 -15.61 6.19 7.95 c17.67 22.98 46.84 39.77 77.77 45.07 17.09 2.95 19.44 2.95 26.51 -2.36 12.08 -8.54 25.33 -30.34 34.46 -55.09 l8.25 -22.68 -5.89 -6.48 c-6.78 -7.36 -14.73 -22.09 -19.44 -35.64 -1.77 -5.60 -3.83 -67.46 -5.01 -153.47 -1.77 -139.92 -2.06 -144.93 -8.54 -164.96 -13.55 -40.65 -29.46 -63.63 -56.85 -81.89 -32.99 -21.80 -87.78 -33.88 -134.91 -30.05 -44.48 3.83 -132.26 24.74 -180.57 42.71 l-17.38 6.48 2.06 10.60 c3.24 17.09 30.93 100.45 33.88 102.22 1.77 0.88 17.97 -3.53 36.23 -9.72 53.32 -18.85 101.04 -26.81 127.84 -21.21 30.34 6.48 45.07 27.98 45.07 65.69 l0 16.79 -30.05 0 c-126.08 0.59 -201.19 44.19 -222.99 130.20 -15.61 61.27 -8.25 112.53 22.09 158.77 18.56 27.98 55.09 51.26 89.55 56.56 20.91 3.53 56.56 1.77 77.77 -3.83z m584.43 0 c84.54 -20.33 139.04 -83.07 161.43 -185.58 7.95 -35.94 7.95 -143.46 0 -179.69 -12.67 -58.33 -32.11 -97.80 -65.98 -133.15 -18.85 -19.74 -26.81 -25.33 -51.84 -38 -37.71 -18.26 -71.29 -24.74 -115.18 -22.09 -38 2.06 -58.62 7.66 -91.61 23.86 -51.84 25.33 -91.32 78.36 -108.40 145.81 -18.85 74.23 -17.09 174.09 4.12 243.02 11.78 38 28.28 65.40 55.67 93.08 41.83 42.12 83.07 58.03 152 58.33 25.63 0.29 42.12 -1.47 59.80 -5.60z m1271.67 1.47 c29.75 -6.48 60.68 -22.09 80.42 -40.95 l17.09 -16.20 12.37 14.43 c22.68 26.22 78.06 47.13 97.80 36.82 4.42 -2.36 12.08 -10.60 17.09 -18.26 9.72 -15.32 24.15 -48.31 24.15 -54.79 0 -2.36 -4.42 -11.78 -10.02 -21.21 -5.60 -9.13 -11.49 -23.27 -13.26 -31.22 -2.06 -9.13 -3.24 -62.74 -3.24 -140.81 0 -99.86 -0.88 -131.67 -4.42 -152.29 -15.02 -86.60 -76.59 -132.56 -176.74 -131.97 -17.67 0.29 -43.01 2.06 -55.67 4.12 -30.34 4.71 -105.75 23.86 -135.80 34.46 l-23.57 8.25 0.59 10.31 c0.59 9.72 25.92 102.51 28.87 105.46 0.59 0.88 17.67 -4.12 37.41 -10.60 20.03 -6.48 46.84 -14.14 59.80 -16.79 30.34 -6.19 70.40 -6.48 84.25 -0.59 20.03 8.25 32.11 32.11 32.11 63.33 l0 15.32 -32.11 0 c-82.48 0 -141.98 18.56 -180.28 55.97 -30.93 30.34 -45.66 65.98 -48.90 117.53 -4.71 83.95 37.71 150.53 108.99 169.67 20.33 5.30 57.44 5.30 83.07 0z m4096.03 -0.29 c44.48 -8.25 94.56 -28.87 123.43 -50.96 l7.36 -5.60 -17.09 -42.71 c-9.43 -23.57 -18.85 -45.36 -21.21 -48.60 l-4.12 -6.19 -15.61 6.78 c-39.47 17.67 -63.63 23.27 -100.74 23.57 -43.60 0.29 -57.74 -4.12 -75.12 -23.86 -13.26 -15.02 -23.57 -43.30 -23.57 -64.51 l0 -12.96 127.84 0 127.84 0 5.30 -21.21 c6.48 -27.69 8.84 -99.57 4.42 -128.73 -7.95 -50.67 -30.64 -97.80 -62.15 -129.61 -22.09 -22.39 -43.30 -35.64 -74.23 -46.84 -19.74 -7.07 -25.33 -7.66 -65.69 -7.95 -49.19 0 -70.99 4.71 -106.05 22.98 -25.92 13.55 -61.57 50.96 -77.18 80.12 -25.92 49.49 -35.94 93.08 -38.29 167.02 -2.65 78.95 7.95 139.04 32.70 187.05 28.28 54.79 72.76 89.26 132.56 102.51 25.33 5.60 89.84 5.30 119.60 -0.29z m436.56 0.59 c73.64 -14.14 119.30 -51.84 139.92 -115.18 6.19 -19.15 7.66 -29.46 7.66 -54.50 0.29 -52.14 -15.61 -89.84 -52.43 -123.13 -23.27 -21.21 -50.67 -36.82 -107.52 -60.98 -56.56 -24.15 -67.75 -32.40 -67.75 -51.26 0 -15.32 10.60 -27.40 29.16 -32.99 23.27 -7.07 82.19 6.19 136.68 30.64 l17.09 7.66 7.36 -16.79 c4.12 -9.13 12.96 -34.46 19.44 -55.97 14.14 -46.25 16.50 -41.53 -28.57 -59.21 -117.53 -46.54 -224.17 -36.82 -287.50 26.22 -32.11 31.81 -46.84 68.64 -46.84 118.12 0 49.49 16.50 87.78 50.96 119.01 18.85 17.38 71.29 45.36 122.25 65.98 15.32 5.89 28.87 13.84 36.23 20.62 10.31 10.02 11.49 12.67 11.49 26.22 0 26.81 -19.44 41.83 -53.61 41.83 -29.16 0 -64.81 -10.02 -102.51 -28.87 -18.56 -9.13 -34.76 -17.09 -35.64 -17.67 -2.65 -1.18 -17.67 34.17 -31.81 73.94 -14.43 40.06 -15.91 35.64 17.38 53.32 26.22 13.55 58.03 24.74 89.84 31.22 33.29 6.78 98.09 7.66 128.73 1.77z m-6703.88 -7.66 c22.68 -5.89 48.90 -17.97 55.38 -25.63 2.65 -3.24 2.65 -6.48 -0.29 -13.55 -17.38 -41.83 -16.20 -27.69 -18.26 -205.32 -1.77 -154.36 -2.36 -164.96 -8.25 -188.23 -12.67 -49.49 -38.29 -84.84 -73.94 -101.63 -16.79 -7.95 -22.98 -9.13 -48.90 -10.02 -25.63 -0.88 -32.70 0 -52.43 6.48 -25.33 8.54 -48.31 22.09 -68.05 40.36 -7.36 6.78 -13.26 11.78 -13.26 11.19 0 -0.59 -0.29 -56.26 -0.88 -123.43 -0.59 -108.40 -1.18 -123.72 -5.89 -135.21 -7.66 -19.44 -17.97 -31.22 -33.58 -38.88 -12.67 -6.48 -18.85 -7.07 -63.33 -7.95 l-49.49 -1.18 0 395.02 0 395.02 76.59 0 76.59 0 0 -179.39 0 -179.39 12.08 -10.90 c25.92 -23.27 60.98 -31.81 77.47 -18.85 18.26 14.43 17.67 10.31 19.44 176.45 1.47 137.57 2.36 153.18 7.07 167.02 16.20 45.36 55.97 62.45 111.94 48.02z m3179.91 -3.83 c25.92 -9.13 46.25 -22.09 71.88 -46.25 l19.15 -17.67 9.13 14.43 c20.62 32.11 53.32 52.73 87.78 55.67 14.14 0.88 20.03 0.29 25.92 -3.53 10.60 -7.07 26.51 -32.40 34.17 -55.09 l6.78 -19.15 -7.95 -10.31 c-18.85 -24.74 -18.26 -15.91 -19.15 -244.79 l-0.88 -208.56 -78.06 0 -78.06 0 0.29 171.74 c0 94.26 0.29 174.98 0 179.39 0 10.31 -14.73 27.40 -30.34 35.35 -15.02 7.66 -43.01 10.31 -55.09 5.30 -4.71 -2.06 -11.78 -8.54 -15.32 -14.43 -6.78 -10.60 -6.78 -11.49 -8.54 -162.31 -2.06 -156.71 -2.36 -161.72 -14.73 -186.46 -14.73 -28.87 -57.15 -41.24 -101.33 -30.05 -18.26 4.71 -48.90 18.26 -58.62 25.63 -5.30 4.12 -5.30 4.42 0.59 15.91 16.20 31.52 16.20 32.11 18.26 204.43 1.77 129.02 2.95 164.37 6.78 179.69 15.02 63.92 43.01 99.86 89.26 115.18 25.04 8.25 68.05 6.48 98.09 -4.12z m2692.69 1.47 c17.38 -6.19 36.23 -15.02 45.36 -21.80 5.30 -4.12 5.30 -4.42 -0.59 -15.91 -13.84 -27.40 -14.73 -37.71 -16.50 -204.43 -1.77 -163.78 -2.95 -181.16 -15.02 -216.22 -22.68 -65.10 -80.12 -95.44 -151.70 -80.12 -34.46 7.36 -69.22 26.22 -100.15 53.91 -8.25 7.36 -15.32 12.96 -15.91 12.37 -0.29 -0.59 -4.12 -7.36 -8.54 -14.73 -10.90 -19.15 -34.46 -39.47 -54.50 -47.13 -22.98 -8.54 -58.33 -10.60 -83.95 -4.42 -32.40 7.66 -57.74 22.39 -88.08 51.26 -12.37 12.08 -14.14 12.67 -15.91 7.66 -10.02 -30.64 -16.50 -40.95 -32.99 -50.67 -13.26 -7.66 -15.61 -7.95 -63.04 -9.13 l-49.49 -0.88 0 269.83 0 269.83 76.59 0 76.59 0 0 -169.97 c0 -108.11 1.18 -174.39 2.95 -181.16 4.42 -15.32 15.02 -27.10 32.99 -35.94 28.28 -14.14 53.32 -7.36 65.69 17.38 5.60 11.19 5.89 18.56 6.78 190.88 l0.88 178.81 77.77 0 78.06 0 0 -177.92 0 -177.63 6.48 -8.54 c30.05 -38.29 76.59 -40.06 92.50 -3.53 5.01 11.49 5.60 25.33 7.36 161.43 1.77 155.24 1.77 157.60 15.32 181.16 7.07 12.37 31.52 29.46 45.95 32.11 14.43 2.36 48.90 -0.88 65.10 -6.48z m-2180.13 2.06 c56.56 -4.12 55.09 -3.53 59.21 -16.20 4.71 -14.14 2.36 -60.98 -4.42 -88.67 l-5.30 -21.21 -21.50 0.29 c-24.74 0.29 -33.29 -3.83 -41.53 -19.15 -5.01 -8.84 -5.30 -29.16 -6.78 -301.05 l-1.47 -291.63 -8.25 -16.79 c-15.02 -30.93 -32.70 -37.71 -96.62 -37.71 l-43.60 0 -0.88 45.07 c-0.59 24.45 -1.18 177.92 -0.88 340.82 0.29 267.47 0.88 298.11 5.30 316.67 10.02 41.83 27.98 66.87 56.85 80.12 28.28 12.96 44.19 14.43 109.88 9.43z m-4300.46 -295.46 l0 -292.80 56.85 -1.18 c61.86 -1.18 71.58 -3.53 93.08 -21.80 17.67 -14.73 20.91 -26.22 20.91 -76.88 l0 -45.07 -248.91 0 -248.91 0 0 72.17 0 72.17 82.48 0 82.48 0 0 17.09 c0 9.13 0 138.74 0 288.09 0 149.35 0.59 273.36 1.77 276.31 1.47 4.12 10.31 4.71 81.01 4.71 l79.24 0 0 -292.80z m4825.10 139.63 l0 -153.18 103.10 0 103.10 0 0.59 152.59 0.88 152.29 80.42 0.88 80.12 0.59 0 -364.98 0 -365.27 -6.48 -2.06 c-8.84 -2.95 -147.29 -2.95 -152 0 -2.65 1.47 -3.53 35.94 -3.53 141.98 l0 139.63 -102.22 -0.59 -102.51 -0.88 -0.88 -139.04 -0.59 -139.04 -6.78 -2.06 c-8.25 -2.65 -147.58 -2.65 -152 0 -2.36 1.47 -3.24 105.46 -3.24 367.33 l0 364.98 81.01 0 81.01 0 0 -153.18z"/>
  <path d="M405.04 865.16 c-12.08 -4.71 -20.03 -9.13 -92.79 -51.26 -34.76 -20.33 -81.89 -47.43 -104.57 -60.68 -47.13 -27.10 -60.39 -38.29 -69.22 -58.62 -5.89 -13.84 -6.19 -17.38 -5.30 -179.98 l0.88 -165.55 8.25 -13.84 c9.43 -15.91 17.67 -22.09 94.85 -69.22 29.16 -17.97 74.82 -45.95 101.63 -62.74 26.81 -16.50 53.61 -32.70 60.09 -35.94 15.32 -7.95 38.29 -9.72 55.09 -4.42 7.36 2.36 48.02 24.74 89.84 49.78 42.12 25.04 98.98 58.91 126.37 75.41 27.69 16.20 52.43 31.81 55.09 35.05 2.95 2.95 8.25 12.08 11.78 20.03 l6.78 14.73 0 159.07 0 159.07 -7.66 16.50 c-8.84 18.85 -15.32 24.15 -58.62 48.90 -136.98 78.65 -204.73 116.65 -215.63 121.66 -14.43 6.48 -42.71 7.66 -56.85 2.06z m75.12 -295.16 l0 -163.49 60.39 0 60.39 0 0 -39.77 0 -39.77 -163.49 0 -163.49 0 0 38 c0 36.23 0.29 38.29 6.19 40.06 3.53 1.18 22.98 1.77 43.60 1.47 20.33 -0.29 44.19 -0.59 52.73 -0.29 l15.32 0.29 0 163.49 0 163.49 44.19 0 44.19 0 0 -163.49z"/>
  <path d="M4611.24 572.94 c-0.88 -2.36 0.29 -14.14 2.65 -25.92 11.78 -57.74 38 -82.77 76 -72.76 16.50 4.42 29.75 18.26 37.41 39.18 7.07 18.85 13.84 56.26 10.90 60.98 -1.18 1.77 -24.74 2.95 -63.63 2.95 -51.84 0 -62.15 -0.59 -63.33 -4.42z"/>
  <path d="M6875.32 795.05 c-24.74 -7.36 -39.77 -29.75 -48.60 -71.88 -6.78 -32.11 -6.78 -127.55 0 -164.96 8.25 -46.54 23.27 -70.99 48.02 -78.06 16.20 -4.42 24.45 -3.53 38.88 3.83 10.90 5.30 15.02 9.72 22.98 25.92 14.14 27.98 18.56 57.74 18.56 127.84 0.29 75.71 -5.30 110.46 -21.80 135.80 -11.78 17.97 -37.71 27.40 -58.03 21.50z"/>
  <path d="M2275.57 794.17 c-21.80 -9.43 -31.52 -34.17 -25.33 -64.22 7.95 -36.23 29.16 -50.96 79.24 -54.20 l30.05 -2.06 0 43.89 0 43.89 -8.84 10.90 c-17.97 21.50 -52.43 31.81 -75.12 21.80z"/>
  <path d="M2810.22 795.64 c-14.43 -2.95 -22.09 -7.66 -31.22 -19.44 -17.97 -23.86 -26.51 -78.95 -23.86 -156.12 3.53 -93.38 17.09 -130.50 51.84 -139.92 26.22 -7.07 48.90 3.24 60.39 27.40 12.37 25.63 16.50 51.55 18.56 116.95 1.77 63.63 -0.88 96.91 -10.02 126.08 -6.48 20.03 -23.86 40.65 -37.12 43.30 -5.01 1.18 -11.49 2.36 -13.84 2.65 -2.36 0.59 -9.13 0 -14.73 -0.88z"/>
  <path d="M4137.27 794.17 c-19.44 -8.84 -27.98 -25.04 -27.98 -51.84 0 -26.22 11.49 -45.95 32.99 -56.85 14.14 -7.36 20.91 -8.84 47.72 -10.02 l31.22 -1.77 0 40.36 c0 43.60 -1.77 50.08 -16.79 63.92 -18.26 17.38 -49.19 24.74 -67.16 16.20z"/>
  <path d="M8119.89 562.04 c4.42 -35.05 18.26 -69.22 32.40 -79.53 18.85 -13.84 47.72 -12.96 65.69 2.06 12.37 10.31 23.57 38 26.81 65.10 1.18 12.67 1.77 24.15 1.18 25.63 -0.59 1.18 -29.75 2.06 -64.81 2.06 l-63.33 0 2.06 -15.32z"/>
 </g>
</svg>